<svg width="126" height="30" viewBox="0 0 126 30" fill="none" xmlns="http://www.w3.org/2000/svg">
<path d="M71.7386 15.6293C71.7386 20.075 69.0819 22.9563 64.9653 22.9563C63.0849 22.9563 61.3027 22.2426 60.2985 20.9255H60.2337V26.4901C60.2337 27.146 59.7027 27.6774 59.0473 27.6774H56.8812C56.2258 27.6774 55.6948 27.146 55.6948 26.4901V9.8437C55.6948 9.1878 56.2258 8.65642 56.8812 8.65642H58.9176C59.573 8.65642 60.104 9.1878 60.104 9.8437V10.4961H60.1689C61.173 9.06855 62.9886 8.30042 64.9005 8.30042C69.0486 8.30042 71.7386 11.1818 71.7386 15.6293ZM60.0059 15.6293C60.0059 18.4019 61.3991 20.0206 63.4407 20.0206C65.612 20.0206 67.0052 18.2914 67.0052 15.6293C67.0052 12.9671 65.612 11.2379 63.4407 11.2379C61.4008 11.2379 60.0059 12.8566 60.0059 15.6293Z" fill="#301274"/>
<path d="M73.7136 17.2198V9.84365C73.7136 9.18775 74.2446 8.65637 74.9 8.65637H77.0661C77.7215 8.65637 78.2525 9.18775 78.2525 9.84365V16.8358C78.2525 18.949 79.3548 19.9101 81.137 19.9101C83.0174 19.9101 84.3773 18.6474 84.3773 16.122V9.84365C84.3773 9.18775 84.9083 8.65637 85.5637 8.65637H87.7298C88.3852 8.65637 88.9162 9.18775 88.9162 9.84365V21.4113C88.9162 22.0672 88.3852 22.5985 87.7298 22.5985H85.8529C85.1975 22.5985 84.6665 22.0672 84.6665 21.4113V20.8413H84.6016C83.5326 22.0759 81.8801 22.9265 79.7719 22.9265C76.0794 22.9282 73.7136 21.0079 73.7136 17.2198Z" fill="#301274"/>
<path d="M99.1926 20.3976V21.8444C99.1926 22.2495 98.8982 22.595 98.4969 22.6582C97.9536 22.7423 97.321 22.7932 96.7952 22.7932C93.0029 22.7932 91.3503 21.5025 91.3503 18.2651V6.22219C91.3503 5.56629 91.8813 5.03491 92.5367 5.03491H94.7028C95.3582 5.03491 95.8892 5.56629 95.8892 6.22219V8.65812H98.2725C98.6931 8.65812 99.0331 8.99835 99.0331 9.41924V10.7503C99.0331 11.1712 98.6931 11.5114 98.2725 11.5114H95.8892V17.5758C95.8892 19.1121 96.4728 19.7172 98.029 19.7172C98.1692 19.7172 98.3111 19.7119 98.4513 19.6996C98.8509 19.668 99.1926 19.9942 99.1926 20.3976Z" fill="#301274"/>
<path d="M120.592 22.681C118.939 26.6058 116.864 27.8404 112.75 27.8404C112.164 27.8404 111.546 27.7966 110.99 27.7212C110.643 27.6738 110.384 27.3774 110.384 27.0285V25.3957C110.384 24.9731 110.755 24.6539 111.174 24.7083C111.47 24.7469 111.795 24.7661 112.135 24.7661C113.95 24.7661 115.149 23.8875 115.149 22.5161C115.149 21.9952 115.019 21.5551 114.371 19.9907L110.256 9.99973C109.993 9.35962 110.463 8.65637 111.155 8.65637H113.342C114.076 8.65637 114.732 9.11585 114.981 9.80682L116.249 13.3213C116.929 15.2416 117.546 17.2181 118.065 19.1665H118.13C118.68 17.2181 119.297 15.2416 120.042 13.3213L121.396 9.77701C121.654 9.10182 122.302 8.65637 123.024 8.65637H125.029C125.725 8.65637 126.194 9.36488 125.925 10.0067L120.592 22.681Z" fill="#301274"/>
<path d="M108.85 20.3976V21.8444C108.85 22.2495 108.556 22.595 108.155 22.6582C107.611 22.7423 106.979 22.7932 106.453 22.7932C102.661 22.7932 101.008 21.5025 101.008 18.2651V6.22219C101.008 5.56629 101.539 5.03491 102.194 5.03491H104.361C105.016 5.03491 105.547 5.56629 105.547 6.22219V8.65812H107.93C108.351 8.65812 108.691 8.99835 108.691 9.41924V10.7503C108.691 11.1712 108.351 11.5114 107.93 11.5114H105.547V17.5758C105.547 19.1121 106.13 19.7172 107.687 19.7172C107.827 19.7172 107.969 19.7119 108.109 19.6996C108.509 19.668 108.85 19.9942 108.85 20.3976Z" fill="#301274"/>
<path d="M54.5295 9.30874V10.9783C54.5295 11.4693 54.1089 11.8481 53.62 11.8078C53.4447 11.7938 53.2747 11.785 53.103 11.785C50.3166 11.785 48.8252 13.2669 48.8252 16.0115V21.4112C48.8252 22.0671 48.2942 22.5985 47.6388 22.5985H45.4728C44.8174 22.5985 44.2864 22.0671 44.2864 21.4112V9.84363C44.2864 9.18773 44.8174 8.65635 45.4728 8.65635H47.2813C47.9367 8.65635 48.4677 9.18773 48.4677 9.84363V10.6328H48.5326C49.6349 9.12284 51.0929 8.43713 53.0381 8.43713C53.2677 8.43713 53.5306 8.45116 53.7917 8.47922C54.2141 8.52482 54.5295 8.88434 54.5295 9.30874Z" fill="url(#paint0_linear)"/>
<path d="M41.5631 21.5059C41.4387 20.7816 41.3704 19.9135 41.3704 18.7859V13.7351C41.3704 10.0856 38.9712 8.2179 34.3044 8.2179C30.3474 8.2179 28.113 9.73487 27.4103 11.8043C27.207 12.4005 27.6451 13.0214 28.2742 13.0214H30.8276C31.2289 13.0214 31.5724 12.7566 31.7003 12.376C32.0122 11.4483 32.9165 10.9081 34.3062 10.9081C35.8939 10.9081 36.9962 11.6219 36.9962 13.3774V13.8719C35.9588 13.9263 34.1117 14.0911 32.8797 14.256C28.1148 14.8873 26.4955 16.4236 26.4955 18.7017C26.4955 21.1166 28.6019 22.9282 32.1016 22.9282C34.371 22.9282 36.2181 22.2144 37.4484 20.7325H37.5132C37.5132 21.1043 37.5325 21.4533 37.5763 21.7865C37.6376 22.2513 38.0354 22.5985 38.5051 22.5985H40.6413C41.2214 22.5985 41.663 22.0776 41.5631 21.5059ZM36.9962 16.727C36.9962 17.9897 36.835 18.7298 36.0569 19.3892C35.4085 19.9381 34.4043 20.1854 33.4633 20.1854C31.8755 20.1854 31.0326 19.4716 31.0326 18.4281C31.0326 17.3022 31.8107 16.7814 33.6893 16.5078C34.6619 16.371 36.0236 16.2605 36.9945 16.2061V16.727H36.9962Z" fill="url(#paint1_linear)"/>
<path d="M27.9306 7.08853C27.9481 4.62979 23.1815 6.1608 23.8351 8.00222C24.2522 9.18073 27.9184 8.86331 27.9306 7.08853Z" fill="url(#paint2_linear)"/>
<path d="M23.0203 2.60604C24.1191 2.7323 25.7787 0.969805 24.6256 0.136783C23.5023 -0.673441 20.856 2.35701 23.0203 2.60604Z" fill="url(#paint3_linear)"/>
<path d="M23.0063 28.8331C23.5776 29.5521 24.552 29.6485 25.0812 29.1522C25.507 28.7524 25.507 28.0491 24.9322 27.6809C23.164 26.548 21.8444 27.3722 23.0063 28.8331Z" fill="url(#paint4_linear)"/>
<path d="M24.6904 10.9451C23.7914 9.90333 22.1265 9.12292 22.1265 8.08121C22.1265 7.32184 22.6593 6.89393 23.2569 6.01531C24.0017 4.91923 23.022 3.90382 22.3351 3.46714C20.9138 2.56046 18.6199 2.36054 17.9347 4.53867C17.4755 6.00128 16.5537 7.12367 15.6652 5.58565C15.334 4.99113 15.0974 4.22125 14.8854 3.69688L14.8836 3.69337C14.7329 3.31983 14.3702 3.07431 13.9688 3.07431H11.2315C10.8284 3.07431 10.4674 3.31807 10.3167 3.69162L10.3132 3.70039C9.96623 4.55972 9.5509 6.0802 8.76229 6.40639C7.97018 6.73434 6.60151 5.95218 5.74456 5.58916L5.74105 5.5874C5.37128 5.42957 4.94193 5.51375 4.65803 5.79785L2.72157 7.73572C2.43767 8.01983 2.35355 8.44949 2.51127 8.82128L2.51478 8.83005C2.87754 9.68412 3.65563 11.0573 3.32967 11.8447C3.00371 12.6339 1.48608 13.0478 0.625628 13.395L0.616865 13.3985C0.243592 13.5476 0 13.9106 0 14.3122V17.0515C0 17.4549 0.243592 17.8162 0.616865 17.967L0.625628 17.9705C1.48608 18.3177 3.00371 18.7316 3.32967 19.5208C3.65738 20.3135 2.87578 21.6849 2.51127 22.5425V22.5442C2.35355 22.9143 2.43592 23.3439 2.72157 23.628L4.65628 25.5659C4.94018 25.8518 5.36953 25.9342 5.74105 25.7764L5.74281 25.7746C6.59976 25.4098 7.97018 24.6277 8.76229 24.9556C9.5509 25.2818 9.96448 26.8005 10.3115 27.6616L10.315 27.6704C10.4657 28.0439 10.8284 28.2877 11.2298 28.2877H13.9671C14.3702 28.2877 14.7312 28.0422 14.8819 27.6686L14.8836 27.6634C15.0168 27.3337 15.1588 26.9075 15.3288 26.4901C15.341 26.4586 15.3533 26.4323 15.3656 26.4024C15.3831 26.3621 15.3989 26.3218 15.4164 26.2814C15.8037 25.4063 16.2348 25.2081 17.0619 25.7693C17.9592 26.3779 18.159 26.6304 19.0667 26.9952C20.169 27.4389 21.5079 27.4178 22.1441 26.5918C22.6383 25.95 22.293 25.1205 22.1546 24.4225C21.9478 23.372 22.265 22.5811 23.0256 21.2307C24.0139 19.4787 23.7546 18.3931 23.4882 17.4005C23.0501 15.7696 23.7931 15.1943 24.7605 13.637C25.3178 12.7444 25.337 11.6956 24.6904 10.9451ZM10.4219 19.3244C10.9967 20.0645 11.9938 20.4398 13.3853 20.4398C14.8275 20.4398 15.8282 19.9768 16.3645 19.0631C16.4363 18.9403 16.4906 18.8228 16.538 18.7193C16.6974 18.3774 16.7517 18.2616 17.1969 18.2616H19.5049C19.6801 18.2616 19.8396 18.323 19.9377 18.4317C20.0429 18.5475 20.0867 18.7158 20.0674 18.9333C19.9272 20.5117 18.7934 21.4429 17.8681 21.9462C16.4731 22.7038 15.1447 22.9862 12.9647 22.9862C10.6269 22.9862 8.72374 22.3636 7.46197 21.1833C6.2037 20.0101 5.53777 18.109 5.53777 15.6836C5.53777 13.2565 6.2037 11.3554 7.46197 10.1822C8.72374 9.00192 10.6269 8.37934 12.9647 8.37934C15.1447 8.37934 16.4731 8.66169 17.8681 9.4193C18.7934 9.92263 19.9272 10.8539 20.0674 12.4322C20.0867 12.6497 20.0429 12.818 19.9377 12.9338C19.8396 13.0425 19.6801 13.1039 19.5049 13.1039H17.1969C16.7517 13.1039 16.6974 12.9881 16.538 12.6462C16.4906 12.5427 16.4363 12.4252 16.3645 12.3024C15.8282 11.3887 14.8275 10.9258 13.3853 10.9258C11.9938 10.9258 10.9967 11.3011 10.4236 12.0411C9.88211 12.7374 9.58419 14.0299 9.58419 15.6836C9.58419 17.3356 9.88211 18.6281 10.4219 19.3244Z" fill="url(#paint5_linear)"/>
<defs>
<linearGradient id="paint0_linear" x1="54.6609" y1="15.5187" x2="0.855343" y2="15.5187" gradientUnits="userSpaceOnUse">
<stop offset="0.131" stop-color="#404CDE"/>
<stop offset="0.2656" stop-color="#3F48D6"/>
<stop offset="0.4729" stop-color="#3C3CC1"/>
<stop offset="0.7253" stop-color="#36299E"/>
<stop offset="0.9758" stop-color="#301274"/>
</linearGradient>
<linearGradient id="paint1_linear" x1="54.661" y1="15.5735" x2="0.85538" y2="15.5735" gradientUnits="userSpaceOnUse">
<stop offset="0.131" stop-color="#404CDE"/>
<stop offset="0.2656" stop-color="#3F48D6"/>
<stop offset="0.4729" stop-color="#3C3CC1"/>
<stop offset="0.7253" stop-color="#36299E"/>
<stop offset="0.9758" stop-color="#301274"/>
</linearGradient>
<linearGradient id="paint2_linear" x1="54.6609" y1="7.25571" x2="0.855289" y2="7.25571" gradientUnits="userSpaceOnUse">
<stop offset="0.131" stop-color="#404CDE"/>
<stop offset="0.2656" stop-color="#3F48D6"/>
<stop offset="0.4729" stop-color="#3C3CC1"/>
<stop offset="0.7253" stop-color="#36299E"/>
<stop offset="0.9758" stop-color="#301274"/>
</linearGradient>
<linearGradient id="paint3_linear" x1="54.661" y1="1.30626" x2="0.855336" y2="1.30626" gradientUnits="userSpaceOnUse">
<stop offset="0.131" stop-color="#404CDE"/>
<stop offset="0.2656" stop-color="#3F48D6"/>
<stop offset="0.4729" stop-color="#3C3CC1"/>
<stop offset="0.7253" stop-color="#36299E"/>
<stop offset="0.9758" stop-color="#301274"/>
</linearGradient>
<linearGradient id="paint4_linear" x1="54.6609" y1="28.3073" x2="0.855363" y2="28.3073" gradientUnits="userSpaceOnUse">
<stop offset="0.131" stop-color="#404CDE"/>
<stop offset="0.2656" stop-color="#3F48D6"/>
<stop offset="0.4729" stop-color="#3C3CC1"/>
<stop offset="0.7253" stop-color="#36299E"/>
<stop offset="0.9758" stop-color="#301274"/>
</linearGradient>
<linearGradient id="paint5_linear" x1="54.6609" y1="15.557" x2="0.855305" y2="15.557" gradientUnits="userSpaceOnUse">
<stop offset="0.131" stop-color="#404CDE"/>
<stop offset="0.2656" stop-color="#3F48D6"/>
<stop offset="0.4729" stop-color="#3C3CC1"/>
<stop offset="0.7253" stop-color="#36299E"/>
<stop offset="0.9758" stop-color="#301274"/>
</linearGradient>
</defs>
</svg>
